<?xml version="1.0" encoding="UTF-8"?>
<svg width="21px" height="20px" viewBox="0 0 21 20" version="1.1" xmlns="http://www.w3.org/2000/svg" xmlns:xlink="http://www.w3.org/1999/xlink">
    <!-- Generator: Sketch 51.3 (57544) - http://www.bohemiancoding.com/sketch -->
    <title>Thumbs Down</title>
    <desc></desc>
    <defs></defs>
    <g id="Page-1" stroke="none" stroke-width="1" fill="none" fill-rule="evenodd">
        <g id="like" transform="translate(10.406504, 10.000000) scale(-1, 1) rotate(180.000000) translate(-10.406504, -10.000000) " fill="#404040" fill-rule="nonzero">
            <path d="M3.39747967,6.39252033 L0.679512195,6.39252033 C0.305853659,6.39252033 0,6.69682927 0,7.07199187 L0,19.3029268 C0,19.6779268 0.304512195,19.9823171 0.679512195,19.9823171 L3.39747967,19.9823171 C3.77247967,19.9823171 4.07699187,19.6778862 4.07699187,19.3029268 L4.07699187,7.07199187 C4.07699187,6.69682927 3.77109756,6.39252033 3.39747967,6.39252033 Z" id="Shape"></path>
            <path d="M19.1165041,6.39252033 C19.0070732,6.37398374 13.8832114,6.39252033 13.8832114,6.39252033 L14.5989024,4.44 C15.0927236,3.09146341 14.7730081,1.03239837 13.4028049,0.300365854 C12.9566667,0.0619918699 12.3333333,-0.0577235772 11.8307724,0.0687804878 C11.542561,0.141300813 11.2892683,0.332113821 11.1382927,0.587764228 C10.9646748,0.881788618 10.9826016,1.225 10.9207724,1.55101626 C10.7639837,2.37792683 10.373252,3.16414634 9.76817073,3.75426829 C8.71321138,4.78317073 5.43601626,7.75146341 5.43601626,7.75146341 L5.43601626,18.623415 L16.760935,18.6234146 C18.289065,18.6243089 19.2905285,16.9178049 18.5368293,15.5848374 C19.4352439,15.0094309 19.7425203,13.797439 19.2163415,12.8668699 C20.1147967,12.2914634 20.4220325,11.0794715 19.8958537,10.1489024 C21.4460163,9.15609756 20.9277642,6.69886179 19.1165041,6.39252033 Z" id="Shape"></path>
        </g>
    </g>
</svg>
